<?xml version="1.0" encoding="UTF-8" standalone="no"?>
<svg
   xmlns:dc="http://purl.org/dc/elements/1.1/"
   xmlns:cc="http://creativecommons.org/ns#"
   xmlns:rdf="http://www.w3.org/1999/02/22-rdf-syntax-ns#"
   xmlns:svg="http://www.w3.org/2000/svg"
   xmlns="http://www.w3.org/2000/svg"
   xmlns:xlink="http://www.w3.org/1999/xlink"
   xmlns:sodipodi="http://sodipodi.sourceforge.net/DTD/sodipodi-0.dtd"
   xmlns:inkscape="http://www.inkscape.org/namespaces/inkscape"
   version="1.1"
   width="16"
   height="16"
   id="svg7567"
   inkscape:version="0.91 r13725"
   sodipodi:docname="preferences-desktop-font.svg">
  <sodipodi:namedview
     pagecolor="#ffffff"
     bordercolor="#666666"
     borderopacity="1"
     objecttolerance="10"
     gridtolerance="10"
     guidetolerance="10"
     inkscape:pageopacity="0"
     inkscape:pageshadow="2"
     inkscape:window-width="1920"
     inkscape:window-height="1017"
     id="namedview59"
     showgrid="false"
     inkscape:zoom="29.5"
     inkscape:cx="10.949153"
     inkscape:cy="7.2294617"
     inkscape:window-x="0"
     inkscape:window-y="30"
     inkscape:window-maximized="1"
     inkscape:current-layer="g8134" />
  <defs
     id="defs7569">
    <linearGradient
       id="linearGradient4632-92-3-0-8-1-7">
      <stop
         id="stop4634-68-8-0-2-9-4"
         style="stop-color:#fafafa;stop-opacity:1"
         offset="0" />
      <stop
         id="stop4636-8-21-7-1-4-0"
         style="stop-color:#e1e1e1;stop-opacity:1"
         offset="1" />
    </linearGradient>
    <linearGradient
       x1="16.325838"
       y1="19.877497"
       x2="16.325838"
       y2="43.470798"
       id="linearGradient3159"
       xlink:href="#linearGradient4035"
       gradientUnits="userSpaceOnUse"
       gradientTransform="matrix(0.50861895,0,0,0.50861895,-0.30363106,-8.1100713)" />
    <linearGradient
       id="linearGradient4035">
      <stop
         id="stop4037"
         style="stop-color:#ffffff;stop-opacity:1"
         offset="0" />
      <stop
         id="stop4039"
         style="stop-color:#ffffff;stop-opacity:0.23529412"
         offset="0.16666664" />
      <stop
         id="stop4041"
         style="stop-color:#ffffff;stop-opacity:0.15686275"
         offset="0.83333331" />
      <stop
         id="stop4043"
         style="stop-color:#ffffff;stop-opacity:0.39215687"
         offset="1" />
    </linearGradient>
    <radialGradient
       cx="31.999998"
       cy="4.3419166"
       r="27.5"
       fx="31.999998"
       fy="4.3419166"
       id="radialGradient7600"
       xlink:href="#linearGradient4632-92-3-0-8-1-7"
       gradientUnits="userSpaceOnUse"
       gradientTransform="matrix(0,0.51340805,-0.513408,0,10.229175,-14.463522)" />
    <linearGradient
       id="linearGradient12739">
      <stop
         id="stop12741"
         style="stop-color:#ffffff;stop-opacity:1"
         offset="0" />
      <stop
         id="stop12743"
         style="stop-color:#ffffff;stop-opacity:0"
         offset="1" />
    </linearGradient>
    <radialGradient
       cx="51.91"
       cy="38.188026"
       r="27.5"
       fx="51.91"
       fy="38.188026"
       id="radialGradient4973"
       xlink:href="#linearGradient12727"
       gradientUnits="userSpaceOnUse"
       gradientTransform="matrix(0,0.13397128,-0.13397131,0,15.116094,3.0451997)"
       spreadMethod="pad" />
    <linearGradient
       id="linearGradient12727">
      <stop
         id="stop12729"
         style="stop-color:#181818;stop-opacity:0"
         offset="0" />
      <stop
         id="stop12745"
         style="stop-color:#181818;stop-opacity:0"
         offset="0.53846145" />
      <stop
         id="stop12731"
         style="stop-color:#181818;stop-opacity:1"
         offset="1" />
    </linearGradient>
    <linearGradient
       x1="30.5"
       y1="29.999983"
       x2="49.5"
       y2="29.999983"
       id="linearGradient4975"
       xlink:href="#linearGradient4632-92-3-0-8-1-7-6"
       gradientUnits="userSpaceOnUse"
       gradientTransform="matrix(0.36842106,0,0,0.36842106,-4.7368544,-1.0530003)" />
    <linearGradient
       id="linearGradient4632-92-3-0-8-1-7-6">
      <stop
         id="stop4634-68-8-0-2-9-4-8"
         style="stop-color:#fafafa;stop-opacity:1"
         offset="0" />
      <stop
         id="stop4636-8-21-7-1-4-0-7"
         style="stop-color:#e1e1e1;stop-opacity:1"
         offset="1" />
    </linearGradient>
    <linearGradient
       x1="33.243969"
       y1="42.379356"
       x2="66.731972"
       y2="42.379356"
       id="linearGradient4977"
       xlink:href="#linearGradient3878"
       gradientUnits="userSpaceOnUse"
       gradientTransform="matrix(0,0.27950309,-0.27950308,0,21.847012,-3.9718003)" />
    <linearGradient
       id="linearGradient3878">
      <stop
         id="stop3880"
         style="stop-color:#ffffff;stop-opacity:1"
         offset="0" />
      <stop
         id="stop3882"
         style="stop-color:#ffffff;stop-opacity:0.23529412"
         offset="0.07692312" />
      <stop
         id="stop3884"
         style="stop-color:#ffffff;stop-opacity:0.15686275"
         offset="0.92307693" />
      <stop
         id="stop3886"
         style="stop-color:#ffffff;stop-opacity:0.39215687"
         offset="1" />
    </linearGradient>
    <linearGradient
       x1="79.457138"
       y1="22.857172"
       x2="79.457138"
       y2="50.057175"
       id="linearGradient4985"
       xlink:href="#linearGradient4220-7"
       gradientUnits="userSpaceOnUse"
       gradientTransform="matrix(0.41938988,0,0,0.41938988,-23.323523,-5.2898003)" />
    <linearGradient
       id="linearGradient4220-7">
      <stop
         id="stop4222-7"
         style="stop-color:#7a8498;stop-opacity:1"
         offset="0" />
      <stop
         id="stop4224-0"
         style="stop-color:#34405c;stop-opacity:1"
         offset="1" />
    </linearGradient>
    <linearGradient
       x1="44.200016"
       y1="1037.505"
       x2="53.800014"
       y2="1037.505"
       id="linearGradient7826"
       xlink:href="#linearGradient12739"
       gradientUnits="userSpaceOnUse"
       gradientTransform="matrix(0.31250001,0,0,0.3888889,-6.8127,-413.47421)" />
    <clipPath
       id="clipPath7834">
      <rect
         width="7"
         height="7"
         rx="25"
         ry="25"
         x="6.4999809"
         y="6.4996166"
         id="rect7836"
         style="color:#000000;fill:url(#linearGradient7838);fill-opacity:1;fill-rule:nonzero;stroke:none;stroke-width:0.99999994;marker:none;visibility:visible;display:inline;overflow:visible;enable-background:accumulate" />
    </clipPath>
    <linearGradient
       x1="30.5"
       y1="29.999983"
       x2="49.5"
       y2="29.999983"
       id="linearGradient7838"
       xlink:href="#linearGradient4632-92-3-0-8-1-7-6"
       gradientUnits="userSpaceOnUse"
       gradientTransform="matrix(0.36842106,0,0,0.36842106,-4.7368544,-1.0530003)" />
    <linearGradient
       spreadMethod="pad"
       gradientTransform="matrix(0.87539065,-0.87968181,0.97932539,0.97445279,137.39425,31.066659)"
       gradientUnits="userSpaceOnUse"
       xlink:href="#linearGradient3155-40"
       id="linearGradient3176"
       y2="31.210939"
       x2="23.575972"
       y1="25.356892"
       x1="23.575972" />
    <linearGradient
       id="linearGradient3155-40">
      <stop
         offset="0"
         style="stop-color:#181818;stop-opacity:1"
         id="stop2541" />
      <stop
         offset="0.13482948"
         style="stop-color:#dbdbdb;stop-opacity:1"
         id="stop2543" />
      <stop
         offset="0.20224422"
         style="stop-color:#a4a4a4;stop-opacity:1"
         id="stop2545" />
      <stop
         offset="0.26965895"
         style="stop-color:#ffffff;stop-opacity:1"
         id="stop2547" />
      <stop
         offset="0.44650277"
         style="stop-color:#8d8d8d;stop-opacity:1"
         id="stop2549" />
      <stop
         offset="0.57114136"
         style="stop-color:#959595;stop-opacity:1"
         id="stop2551" />
      <stop
         offset="0.72038066"
         style="stop-color:#cecece;stop-opacity:1"
         id="stop2553" />
      <stop
         offset="1"
         style="stop-color:#181818;stop-opacity:1"
         id="stop2555" />
    </linearGradient>
    <linearGradient
       gradientTransform="matrix(0.85064445,-0.85481442,1.146122,1.1404196,134.1863,26.565393)"
       gradientUnits="userSpaceOnUse"
       xlink:href="#linearGradient3240-907"
       id="linearGradient3171-9"
       y2="30.000141"
       x2="30.037716"
       y1="24.989594"
       x1="30.037716" />
    <linearGradient
       id="linearGradient3240-907">
      <stop
         offset="0"
         style="stop-color:#565656;stop-opacity:1"
         id="stop2591" />
      <stop
         offset="0.5"
         style="stop-color:#9a9a9a;stop-opacity:1"
         id="stop2593" />
      <stop
         offset="1"
         style="stop-color:#545454;stop-opacity:1"
         id="stop2595" />
    </linearGradient>
    <linearGradient
       gradientTransform="matrix(0.85064445,-0.85481442,1.146122,1.1404196,133.94269,26.810201)"
       gradientUnits="userSpaceOnUse"
       xlink:href="#linearGradient3223-699"
       id="linearGradient3168"
       y2="30.000141"
       x2="30.037716"
       y1="24.989594"
       x1="30.037716" />
    <linearGradient
       id="linearGradient3223-699">
      <stop
         offset="0"
         style="stop-color:#b1b1b1;stop-opacity:1"
         id="stop2599" />
      <stop
         offset="0.5"
         style="stop-color:#ffffff;stop-opacity:1"
         id="stop2601" />
      <stop
         offset="1"
         style="stop-color:#8f8f8f;stop-opacity:1"
         id="stop2603" />
    </linearGradient>
    <linearGradient
       gradientTransform="matrix(0.85064445,-0.85481442,1.146122,1.1404196,135.03285,25.71469)"
       gradientUnits="userSpaceOnUse"
       xlink:href="#linearGradient3240-907"
       id="linearGradient3165"
       y2="30.000141"
       x2="30.037716"
       y1="24.989594"
       x1="30.037716" />
    <linearGradient
       gradientTransform="matrix(0.85064445,-0.85481442,1.146122,1.1404196,134.78924,25.959496)"
       gradientUnits="userSpaceOnUse"
       xlink:href="#linearGradient3223-699"
       id="linearGradient3162"
       y2="30.000141"
       x2="30.037716"
       y1="24.989594"
       x1="30.037716" />
    <linearGradient
       gradientTransform="matrix(0.85064445,-0.85481442,1.146122,1.1404196,135.8835,24.859875)"
       gradientUnits="userSpaceOnUse"
       xlink:href="#linearGradient3240-907"
       id="linearGradient3159-3"
       y2="30.000141"
       x2="30.037716"
       y1="24.989594"
       x1="30.037716" />
    <linearGradient
       gradientTransform="matrix(0.85064445,-0.85481442,1.146122,1.1404196,135.63989,25.104684)"
       gradientUnits="userSpaceOnUse"
       xlink:href="#linearGradient3223-699"
       id="linearGradient3156"
       y2="30.000141"
       x2="30.037716"
       y1="24.989594"
       x1="30.037716" />
    <linearGradient
       gradientTransform="matrix(0.85064445,-0.85481442,1.1461221,1.1404197,133.86321,26.890061)"
       gradientUnits="userSpaceOnUse"
       xlink:href="#linearGradient3290-678"
       id="linearGradient3151"
       y2="26.02973"
       x2="9"
       y1="29.056757"
       x1="9" />
    <linearGradient
       id="linearGradient3290-678">
      <stop
         offset="0"
         style="stop-color:#ece5a5;stop-opacity:1"
         id="stop2607" />
      <stop
         offset="1"
         style="stop-color:#fcfbf2;stop-opacity:1"
         id="stop2609" />
    </linearGradient>
    <linearGradient
       gradientTransform="matrix(0.74712277,0.03224699,0.03220731,0.74620134,164.80582,22.054915)"
       gradientUnits="userSpaceOnUse"
       xlink:href="#linearGradient3191-577"
       id="linearGradient3153"
       y2="41.391716"
       x2="9.5220556"
       y1="37.371799"
       x1="5.5178981" />
    <linearGradient
       id="linearGradient3191-577">
      <stop
         offset="0"
         style="stop-color:#dbce48;stop-opacity:1"
         id="stop2613" />
      <stop
         offset="1"
         style="stop-color:#c5b625;stop-opacity:1"
         id="stop2615" />
    </linearGradient>
    <linearGradient
       gradientTransform="matrix(1.4293806,0,0,1.4293806,-41.386519,-3.7704626)"
       gradientUnits="userSpaceOnUse"
       xlink:href="#linearGradient4549"
       id="linearGradient3024-3"
       y2="30.093096"
       x2="30.643436"
       y1="3.915791"
       x1="30.643436" />
    <linearGradient
       id="linearGradient4549">
      <stop
         offset="0"
         style="stop-color:#000000;stop-opacity:0.27205881"
         id="stop4551" />
      <stop
         offset="1"
         style="stop-color:#000000;stop-opacity:0.36764705"
         id="stop4553" />
    </linearGradient>
    <linearGradient
       gradientTransform="matrix(1.3235006,0,0,-1.3235006,-0.64700111,43.033271)"
       gradientUnits="userSpaceOnUse"
       xlink:href="#linearGradient4549"
       id="linearGradient3453-5"
       y2="17.313972"
       x2="19.868132"
       y1="13.067885"
       x1="19.868132" />
    <clipPath
       id="clipPath8125-5"
       clipPathUnits="userSpaceOnUse">
      <path
         d="m 15,7.9999995 c -0.277,0 -0.5,0.223 -0.5,0.5 l 0,1.6875005 c -0.548639,0.140741 -1.055018,0.37601 -1.53125,0.65625 L 11.75,9.625 c -0.195869,-0.19587 -0.491631,-0.19587 -0.6875,0 L 9.625,11.0625 c -0.1958686,0.195869 -0.1958686,0.491631 0,0.6875 l 1.21875,1.21875 C 10.56351,13.444982 10.328241,13.951361 10.1875,14.5 L 8.5,14.5 C 8.223,14.5 8,14.723 8,15 l 0,2 c 0,0.277 0.223,0.5 0.5,0.5 l 1.6875,0 c 0.140741,0.548639 0.37601,1.055018 0.65625,1.53125 L 9.625,20.25 c -0.1958686,0.195869 -0.1958686,0.491631 0,0.6875 l 1.4375,1.4375 c 0.195869,0.195869 0.491631,0.195869 0.6875,0 l 1.21875,-1.21875 c 0.476232,0.28024 0.982611,0.515509 1.53125,0.65625 l 0,1.6875 c 0,0.277 0.223,0.5 0.5,0.5 l 2,0 c 0.277,0 0.5,-0.223 0.5,-0.5 l 0,-1.6875 c 0.548639,-0.140741 1.055018,-0.37601 1.53125,-0.65625 L 20.25,22.375 c 0.195869,0.195869 0.491631,0.195869 0.6875,0 l 1.4375,-1.4375 c 0.195869,-0.195869 0.195869,-0.491631 0,-0.6875 L 21.15625,19.03125 C 21.43649,18.555018 21.671759,18.048639 21.8125,17.5 l 1.6875,0 c 0.277,0 0.5,-0.223 0.5,-0.5 l 0,-2 c 0,-0.277 -0.223,-0.5 -0.5,-0.5 l -1.6875,0 C 21.671759,13.951361 21.43649,13.444982 21.15625,12.96875 L 22.375,11.75 c 0.195869,-0.19587 0.195869,-0.491631 0,-0.6875 L 20.9375,9.625 c -0.195869,-0.19587 -0.491631,-0.19587 -0.6875,0 l -1.21875,1.21875 C 18.555018,10.56351 18.048639,10.328241 17.5,10.1875 l 0,-1.6875005 c 0,-0.277 -0.223,-0.5 -0.5,-0.5 l -2,0 z M 16,13 c 1.656854,0 3,1.343146 3,3 0,1.656854 -1.343146,3 -3,3 -1.656854,0 -3,-1.343146 -3,-3 0,-1.656854 1.343146,-3 3,-3 z"
         id="path8127-2"
         style="color:#000000;display:inline;overflow:visible;visibility:visible;fill:#000000;fill-opacity:1;fill-rule:nonzero;stroke:none;stroke-width:2;stroke-miterlimit:4;stroke-dasharray:none;stroke-opacity:1;marker:none;enable-background:accumulate"
         inkscape:connector-curvature="0" />
    </clipPath>
    <clipPath
       id="clipPath4458"
       clipPathUnits="userSpaceOnUse">
      <path
         d="m 15,7.9999995 c -0.277,0 -0.5,0.223 -0.5,0.5 l 0,1.6875005 c -0.548639,0.140741 -1.055018,0.37601 -1.53125,0.65625 L 11.75,9.625 c -0.195869,-0.19587 -0.491631,-0.19587 -0.6875,0 L 9.625,11.0625 c -0.1958686,0.195869 -0.1958686,0.491631 0,0.6875 l 1.21875,1.21875 C 10.56351,13.444982 10.328241,13.951361 10.1875,14.5 L 8.5,14.5 C 8.223,14.5 8,14.723 8,15 l 0,2 c 0,0.277 0.223,0.5 0.5,0.5 l 1.6875,0 c 0.140741,0.548639 0.37601,1.055018 0.65625,1.53125 L 9.625,20.25 c -0.1958686,0.195869 -0.1958686,0.491631 0,0.6875 l 1.4375,1.4375 c 0.195869,0.195869 0.491631,0.195869 0.6875,0 l 1.21875,-1.21875 c 0.476232,0.28024 0.982611,0.515509 1.53125,0.65625 l 0,1.6875 c 0,0.277 0.223,0.5 0.5,0.5 l 2,0 c 0.277,0 0.5,-0.223 0.5,-0.5 l 0,-1.6875 c 0.548639,-0.140741 1.055018,-0.37601 1.53125,-0.65625 L 20.25,22.375 c 0.195869,0.195869 0.491631,0.195869 0.6875,0 l 1.4375,-1.4375 c 0.195869,-0.195869 0.195869,-0.491631 0,-0.6875 L 21.15625,19.03125 C 21.43649,18.555018 21.671759,18.048639 21.8125,17.5 l 1.6875,0 c 0.277,0 0.5,-0.223 0.5,-0.5 l 0,-2 c 0,-0.277 -0.223,-0.5 -0.5,-0.5 l -1.6875,0 C 21.671759,13.951361 21.43649,13.444982 21.15625,12.96875 L 22.375,11.75 c 0.195869,-0.19587 0.195869,-0.491631 0,-0.6875 L 20.9375,9.625 c -0.195869,-0.19587 -0.491631,-0.19587 -0.6875,0 l -1.21875,1.21875 C 18.555018,10.56351 18.048639,10.328241 17.5,10.1875 l 0,-1.6875005 c 0,-0.277 -0.223,-0.5 -0.5,-0.5 l -2,0 z M 16,13 c 1.656854,0 3,1.343146 3,3 0,1.656854 -1.343146,3 -3,3 -1.656854,0 -3,-1.343146 -3,-3 0,-1.656854 1.343146,-3 3,-3 z"
         id="path4460"
         style="color:#000000;display:inline;overflow:visible;visibility:visible;fill:#000000;fill-opacity:1;fill-rule:nonzero;stroke:none;stroke-width:2;stroke-miterlimit:4;stroke-dasharray:none;stroke-opacity:1;marker:none;enable-background:accumulate"
         inkscape:connector-curvature="0" />
    </clipPath>
    <filter
       style="color-interpolation-filters:sRGB"
       inkscape:collect="always"
       id="filter4128"
       x="-0.29760003"
       width="1.5951999"
       y="-1.24"
       height="3.48">
      <feGaussianBlur
         inkscape:collect="always"
         stdDeviation="0.78286824"
         id="feGaussianBlur4130" />
    </filter>
  </defs>
  <metadata
     id="metadata7572">
    <rdf:RDF>
      <cc:Work
         rdf:about="">
        <dc:format>image/svg+xml</dc:format>
        <dc:type
           rdf:resource="http://purl.org/dc/dcmitype/StillImage" />
        <dc:title />
      </cc:Work>
    </rdf:RDF>
  </metadata>
  <g
     id="layer1">
    <g
       id="g8134">
      <rect
         width="12"
         height="12"
         x="2"
         y="2.0000002"
         id="rect5505-21-3-8-5-2"
         style="color:#000000;fill:url(#radialGradient7600);fill-opacity:1;fill-rule:nonzero;stroke:none;stroke-width:0.99999994;marker:none;visibility:visible;display:inline;overflow:visible;enable-background:accumulate" />
      <rect
         width="13"
         height="13"
         rx="1"
         ry="1"
         x="1.5"
         y="1.4999999"
         id="rect3993"
         style="opacity:0.3;fill:none;stroke:#000000;stroke-width:0.99999994;stroke-opacity:1" />
      <rect
         width="11"
         height="11"
         x="2.4999986"
         y="2.5"
         id="rect6741-5-0-2-3"
         style="fill:none;stroke:url(#linearGradient3159);stroke-width:1;stroke-linecap:round;stroke-linejoin:round;stroke-miterlimit:4;stroke-opacity:1;stroke-dasharray:none;stroke-dashoffset:0" />
      <ellipse
         style="opacity:0.07999998;fill:#000000;fill-opacity:1;stroke:none;filter:url(#filter4128)"
         id="path4114"
         transform="matrix(0.23378483,0,0,0.23378483,3.5222633,-5.5026053)"
         cx="14.394673"
         cy="45.853424"
         rx="3.1567266"
         ry="0.75761443" />
      <rect
         style="color:#000000;clip-rule:nonzero;display:inline;overflow:visible;visibility:visible;opacity:1;isolation:auto;mix-blend-mode:normal;color-interpolation:sRGB;color-interpolation-filters:linearRGB;solid-color:#000000;solid-opacity:1;fill:#34a8ed;fill-opacity:1;fill-rule:nonzero;stroke:none;stroke-width:0.60000002;stroke-linecap:butt;stroke-linejoin:round;stroke-miterlimit:4;stroke-dasharray:none;stroke-dashoffset:0;stroke-opacity:1;marker:none;color-rendering:auto;image-rendering:auto;shape-rendering:auto;text-rendering:auto;enable-background:accumulate"
         id="rect6579-0"
         width="7.8872938"
         height="0.41240561"
         x="4.0335212"
         y="11.723871"
         rx="0"
         ry="0.20620281" />
      <g
         style="opacity:1"
         id="g6247"
         transform="matrix(0.29716787,0,0,0.29716787,2.0841767,0.61130276)">
        <rect
           style="color:#000000;display:inline;overflow:visible;visibility:visible;opacity:0;fill:none;stroke:url(#linearGradient3024-3);stroke-width:1.32350051;stroke-linecap:round;stroke-linejoin:round;stroke-miterlimit:4;stroke-dasharray:none;stroke-dashoffset:0;stroke-opacity:1;marker:none;enable-background:accumulate"
           id="rect5505-6-6-6"
           y="2.6617503"
           x="2.6617503"
           ry="2.8587613"
           rx="2.8587613"
           height="35.734516"
           width="35.734516" />
        <path
           inkscape:connector-curvature="0"
           style="color:#000000;display:inline;overflow:visible;visibility:visible;opacity:0.4;fill:#ffffff;fill-opacity:1;fill-rule:nonzero;stroke:none;stroke-width:1;marker:none;enable-background:accumulate"
           id="path12664"
           d="m 19.205507,11.264504 c -0.366609,0 -0.66175,0.29514 -0.66175,0.66175 l 0,2.233408 c -0.726124,0.18627 -1.396317,0.497649 -2.02661,0.868547 l -1.613016,-1.613017 c -0.259233,-0.259234 -0.650674,-0.259234 -0.909907,0 l -1.902532,1.902533 c -0.259232,0.259232 -0.259232,0.650673 0,0.909906 l 1.613016,1.613016 c -0.370898,0.630294 -0.682276,1.300487 -0.868547,2.026611 l -2.233407,0 c -0.36661,0 -0.6617505,0.29514 -0.6617505,0.66175 l 0,2.647001 c 0,0.36661 0.2951405,0.66175 0.6617505,0.66175 l 2.233407,0 c 0.186271,0.726126 0.497649,1.396317 0.868547,2.026611 l -1.613016,1.613016 c -0.259232,0.259233 -0.259232,0.650675 0,0.909907 l 1.902532,1.902532 c 0.259233,0.259232 0.650674,0.259232 0.909907,0 l 1.613016,-1.613017 c 0.630293,0.370898 1.300486,0.682278 2.02661,0.868548 l 0,2.233407 c 0,0.366611 0.295141,0.66175 0.66175,0.66175 l 2.647002,0 c 0.366609,0 0.66175,-0.295139 0.66175,-0.66175 l 0,-2.233407 c 0.726124,-0.18627 1.396317,-0.49765 2.02661,-0.868548 l 1.613016,1.613017 c 0.259233,0.259232 0.650674,0.259232 0.909907,0 l 1.902532,-1.902532 c 0.259233,-0.259232 0.259233,-0.650674 0,-0.909907 L 27.353308,25.86437 c 0.370898,-0.630294 0.682276,-1.300485 0.868547,-2.026611 l 2.233407,0 c 0.36661,0 0.661751,-0.29514 0.661751,-0.66175 l 0,-2.647001 c 0,-0.36661 -0.295141,-0.66175 -0.661751,-0.66175 l -2.233407,0 c -0.186271,-0.726124 -0.497649,-1.396317 -0.868547,-2.026611 l 1.613016,-1.613016 c 0.259233,-0.259234 0.259233,-0.650674 0,-0.909906 l -1.902532,-1.902533 c -0.259233,-0.259234 -0.650674,-0.259234 -0.909907,0 l -1.613016,1.613017 c -0.630293,-0.370898 -1.300486,-0.682277 -2.02661,-0.868547 l 0,-2.233408 c 0,-0.36661 -0.295141,-0.66175 -0.66175,-0.66175 l -2.647002,0 z m 1.323501,6.617503 c 2.192847,0 3.970502,1.777654 3.970502,3.970502 0,2.192847 -1.777655,3.970501 -3.970502,3.970501 -2.192847,0 -3.970502,-1.777654 -3.970502,-3.970501 0,-2.192848 1.777655,-3.970502 3.970502,-3.970502 z" />
        <path
           d="m 19.205507,11.264504 c -0.366609,0 -0.66175,0.295141 -0.66175,0.66175 l 0,2.233408 c -0.726124,0.18627 -1.396317,0.497649 -2.02661,0.868547 l -1.613016,-1.613017 c -0.259233,-0.259234 -0.650674,-0.259234 -0.909907,0 l -1.902532,1.902533 c -0.259232,0.259232 -0.259232,0.650673 0,0.909906 l 1.613016,1.613016 c -0.370898,0.630294 -0.682276,1.300487 -0.868547,2.026611 l -2.233407,0 c -0.36661,0 -0.6617505,0.29514 -0.6617505,0.66175 l 0,2.647001 c 0,0.366611 0.2951405,0.66175 0.6617505,0.66175 l 2.233407,0 c 0.186271,0.726126 0.497649,1.396317 0.868547,2.026611 l -1.613016,1.613016 c -0.259232,0.259233 -0.259232,0.650675 0,0.909907 l 1.902532,1.902532 c 0.259233,0.259232 0.650674,0.259232 0.909907,0 l 1.613016,-1.613017 c 0.630293,0.370898 1.300486,0.682278 2.02661,0.868548 l 0,2.233407 c 0,0.36661 0.295141,0.66175 0.66175,0.66175 l 2.647002,0 c 0.366609,0 0.66175,-0.29514 0.66175,-0.66175 l 0,-2.233407 c 0.726124,-0.18627 1.396317,-0.49765 2.02661,-0.868548 l 1.613016,1.613017 c 0.259233,0.259232 0.650674,0.259232 0.909907,0 l 1.902532,-1.902532 c 0.259233,-0.259232 0.259233,-0.650674 0,-0.909907 L 27.353308,25.86437 c 0.370898,-0.630294 0.682276,-1.300485 0.868547,-2.026611 l 2.233407,0 c 0.36661,0 0.661751,-0.295139 0.661751,-0.66175 l 0,-2.647001 c 0,-0.36661 -0.295141,-0.66175 -0.661751,-0.66175 l -2.233407,0 c -0.186271,-0.726124 -0.497649,-1.396317 -0.868547,-2.026611 l 1.613016,-1.613016 c 0.259233,-0.259234 0.259233,-0.650674 0,-0.909906 l -1.902532,-1.902533 c -0.259233,-0.259234 -0.650674,-0.259234 -0.909907,0 l -1.613016,1.613017 c -0.630293,-0.370898 -1.300486,-0.682277 -2.02661,-0.868547 l 0,-2.233408 c 0,-0.366609 -0.295141,-0.66175 -0.66175,-0.66175 l -2.647002,0 z m 1.323501,6.617503 c 2.192847,0 3.970502,1.777654 3.970502,3.970502 0,2.192847 -1.777655,3.970501 -3.970502,3.970501 -2.192847,0 -3.970502,-1.777654 -3.970502,-3.970501 0,-2.192848 1.777655,-3.970502 3.970502,-3.970502 z"
           id="path3575-5-3"
           style="color:#000000;display:inline;overflow:visible;visibility:visible;opacity:0.53699999;fill:#c9c9c9;fill-opacity:1;fill-rule:nonzero;stroke:none;stroke-width:1;marker:none;enable-background:accumulate"
           inkscape:connector-curvature="0" />
        <path
           d="m 19.205507,9.9410032 c -0.366609,0 -0.66175,0.2951408 -0.66175,0.6617498 l 0,2.233408 c -0.726124,0.186271 -1.396317,0.497649 -2.02661,0.868547 l -1.613016,-1.613016 c -0.259233,-0.259234 -0.650674,-0.259234 -0.909907,0 l -1.902532,1.902532 c -0.259232,0.259233 -0.259232,0.650674 0,0.909907 l 1.613016,1.613016 c -0.370898,0.630293 -0.682276,1.300486 -0.868547,2.02661 l -2.233407,0 c -0.36661,0 -0.6617505,0.295141 -0.6617505,0.66175 l 0,2.647002 c 0,0.366609 0.2951405,0.66175 0.6617505,0.66175 l 2.233407,0 c 0.186271,0.726125 0.497649,1.396317 0.868547,2.02661 l -1.613016,1.613016 c -0.259232,0.259233 -0.259232,0.650676 0,0.909907 l 1.902532,1.902532 c 0.259233,0.259233 0.650674,0.259233 0.909907,0 l 1.613016,-1.613016 c 0.630293,0.370898 1.300486,0.682278 2.02661,0.868547 l 0,2.233407 c 0,0.366611 0.295141,0.661751 0.66175,0.661751 l 2.647002,0 c 0.366609,0 0.66175,-0.29514 0.66175,-0.661751 l 0,-2.233407 c 0.726124,-0.186269 1.396317,-0.497649 2.02661,-0.868547 l 1.613016,1.613016 c 0.259233,0.259233 0.650674,0.259233 0.909907,0 l 1.902532,-1.902532 c 0.259233,-0.259231 0.259233,-0.650674 0,-0.909907 l -1.613016,-1.613016 c 0.370898,-0.630293 0.682276,-1.300485 0.868547,-2.02661 l 2.233407,0 c 0.36661,0 0.661751,-0.295141 0.661751,-0.66175 l 0,-2.647002 c 0,-0.366609 -0.295141,-0.66175 -0.661751,-0.66175 l -2.233407,0 c -0.186271,-0.726124 -0.497649,-1.396317 -0.868547,-2.02661 l 1.613016,-1.613016 c 0.259233,-0.259234 0.259233,-0.650674 0,-0.909907 l -1.902532,-1.902532 c -0.259233,-0.259234 -0.650674,-0.259234 -0.909907,0 l -1.613016,1.613016 c -0.630293,-0.370898 -1.300486,-0.682276 -2.02661,-0.868547 l 0,-2.233408 c 0,-0.366609 -0.295141,-0.6617498 -0.66175,-0.6617498 l -2.647002,0 z m 1.323501,6.6175028 c 2.192847,0 3.970502,1.777655 3.970502,3.970502 0,2.192847 -1.777655,3.970502 -3.970502,3.970502 -2.192847,0 -3.970502,-1.777655 -3.970502,-3.970502 0,-2.192847 1.777655,-3.970502 3.970502,-3.970502 z"
           id="path3575-5"
           style="color:#000000;display:inline;overflow:visible;visibility:visible;fill:#2be5cb;fill-opacity:1;fill-rule:nonzero;stroke:none;stroke-width:1;marker:none;enable-background:accumulate"
           inkscape:connector-curvature="0" />
        <path
           d="m 20.529008,25.24873 c 2.564109,0.07034 4.848451,-2.276549 4.71343,-4.836669 0.0053,-2.566186 -2.401703,-4.786146 -4.956067,-4.587138 -2.566513,0.05977 -4.72103,2.524415 -4.458585,5.071617 0.137819,2.397352 2.301567,4.397863 4.701222,4.35219 z"
           id="path4685"
           style="color:#000000;display:inline;overflow:visible;visibility:visible;opacity:0.05;fill:none;stroke:url(#linearGradient3453-5);stroke-width:1.32350051;stroke-linejoin:round;stroke-miterlimit:4;stroke-dasharray:none;stroke-opacity:1;marker:none;enable-background:accumulate"
           inkscape:connector-curvature="0" />
        <path
           clip-path="url(#clipPath8125-5)"
           inkscape:connector-curvature="0"
           style="color:#000000;display:inline;overflow:visible;visibility:visible;opacity:0.05;fill:#c9c9c9;fill-opacity:1;fill-rule:nonzero;stroke:#000000;stroke-width:2;stroke-miterlimit:4;stroke-dasharray:none;stroke-opacity:1;marker:none;enable-background:accumulate"
           id="path8121"
           d="m 15,7.9999995 c -0.277,0 -0.5,0.223 -0.5,0.5 l 0,1.6875005 c -0.548639,0.140741 -1.055018,0.37601 -1.53125,0.65625 L 11.75,9.625 c -0.195869,-0.19587 -0.491631,-0.19587 -0.6875,0 L 9.625,11.0625 c -0.1958686,0.195869 -0.1958686,0.491631 0,0.6875 l 1.21875,1.21875 C 10.56351,13.444982 10.328241,13.951361 10.1875,14.5 L 8.5,14.5 C 8.223,14.5 8,14.723 8,15 l 0,2 c 0,0.277 0.223,0.5 0.5,0.5 l 1.6875,0 c 0.140741,0.548639 0.37601,1.055018 0.65625,1.53125 L 9.625,20.25 c -0.1958686,0.195869 -0.1958686,0.491631 0,0.6875 l 1.4375,1.4375 c 0.195869,0.195869 0.491631,0.195869 0.6875,0 l 1.21875,-1.21875 c 0.476232,0.28024 0.982611,0.515509 1.53125,0.65625 l 0,1.6875 c 0,0.277 0.223,0.5 0.5,0.5 l 2,0 c 0.277,0 0.5,-0.223 0.5,-0.5 l 0,-1.6875 c 0.548639,-0.140741 1.055018,-0.37601 1.53125,-0.65625 L 20.25,22.375 c 0.195869,0.195869 0.491631,0.195869 0.6875,0 l 1.4375,-1.4375 c 0.195869,-0.195869 0.195869,-0.491631 0,-0.6875 L 21.15625,19.03125 C 21.43649,18.555018 21.671759,18.048639 21.8125,17.5 l 1.6875,0 c 0.277,0 0.5,-0.223 0.5,-0.5 l 0,-2 c 0,-0.277 -0.223,-0.5 -0.5,-0.5 l -1.6875,0 C 21.671759,13.951361 21.43649,13.444982 21.15625,12.96875 L 22.375,11.75 c 0.195869,-0.19587 0.195869,-0.491631 0,-0.6875 L 20.9375,9.625 c -0.195869,-0.19587 -0.491631,-0.19587 -0.6875,0 l -1.21875,1.21875 C 18.555018,10.56351 18.048639,10.328241 17.5,10.1875 l 0,-1.6875005 c 0,-0.277 -0.223,-0.5 -0.5,-0.5 l -2,0 z M 16,13 c 1.656854,0 3,1.343146 3,3 0,1.656854 -1.343146,3 -3,3 -1.656854,0 -3,-1.343146 -3,-3 0,-1.656854 1.343146,-3 3,-3 z"
           transform="matrix(1.3235006,0,0,1.3235006,-0.64700111,-0.64700115)" />
        <path
           d="m 15,7.9999995 c -0.277,0 -0.5,0.223 -0.5,0.5 l 0,1.6875005 c -0.548639,0.140741 -1.055018,0.37601 -1.53125,0.65625 L 11.75,9.625 c -0.195869,-0.19587 -0.491631,-0.19587 -0.6875,0 L 9.625,11.0625 c -0.1958686,0.195869 -0.1958686,0.491631 0,0.6875 l 1.21875,1.21875 C 10.56351,13.444982 10.328241,13.951361 10.1875,14.5 L 8.5,14.5 C 8.223,14.5 8,14.723 8,15 l 0,2 c 0,0.277 0.223,0.5 0.5,0.5 l 1.6875,0 c 0.140741,0.548639 0.37601,1.055018 0.65625,1.53125 L 9.625,20.25 c -0.1958686,0.195869 -0.1958686,0.491631 0,0.6875 l 1.4375,1.4375 c 0.195869,0.195869 0.491631,0.195869 0.6875,0 l 1.21875,-1.21875 c 0.476232,0.28024 0.982611,0.515509 1.53125,0.65625 l 0,1.6875 c 0,0.277 0.223,0.5 0.5,0.5 l 2,0 c 0.277,0 0.5,-0.223 0.5,-0.5 l 0,-1.6875 c 0.548639,-0.140741 1.055018,-0.37601 1.53125,-0.65625 L 20.25,22.375 c 0.195869,0.195869 0.491631,0.195869 0.6875,0 l 1.4375,-1.4375 c 0.195869,-0.195869 0.195869,-0.491631 0,-0.6875 L 21.15625,19.03125 C 21.43649,18.555018 21.671759,18.048639 21.8125,17.5 l 1.6875,0 c 0.277,0 0.5,-0.223 0.5,-0.5 l 0,-2 c 0,-0.277 -0.223,-0.5 -0.5,-0.5 l -1.6875,0 C 21.671759,13.951361 21.43649,13.444982 21.15625,12.96875 L 22.375,11.75 c 0.195869,-0.19587 0.195869,-0.491631 0,-0.6875 L 20.9375,9.625 c -0.195869,-0.19587 -0.491631,-0.19587 -0.6875,0 l -1.21875,1.21875 C 18.555018,10.56351 18.048639,10.328241 17.5,10.1875 l 0,-1.6875005 c 0,-0.277 -0.223,-0.5 -0.5,-0.5 l -2,0 z M 16,13 c 1.656854,0 3,1.343146 3,3 0,1.656854 -1.343146,3 -3,3 -1.656854,0 -3,-1.343146 -3,-3 0,-1.656854 1.343146,-3 3,-3 z"
           id="path8129"
           style="color:#000000;display:inline;overflow:visible;visibility:visible;opacity:0.1;fill:none;fill-opacity:1;fill-rule:nonzero;stroke:#000000;stroke-width:1;stroke-miterlimit:4;stroke-dasharray:none;stroke-opacity:1;marker:none;enable-background:accumulate"
           inkscape:connector-curvature="0"
           clip-path="url(#clipPath8125-5)"
           transform="matrix(1.3235006,0,0,1.3235006,-0.64700111,-0.64700115)" />
      </g>
      <rect
         style="color:#000000;clip-rule:nonzero;display:inline;overflow:visible;visibility:visible;opacity:1;isolation:auto;mix-blend-mode:normal;color-interpolation:sRGB;color-interpolation-filters:linearRGB;solid-color:#000000;solid-opacity:1;fill:#5bdb4e;fill-opacity:1;fill-rule:nonzero;stroke:none;stroke-width:0.60000002;stroke-linecap:butt;stroke-linejoin:round;stroke-miterlimit:4;stroke-dasharray:none;stroke-dashoffset:0;stroke-opacity:1;marker:none;color-rendering:auto;image-rendering:auto;shape-rendering:auto;text-rendering:auto;enable-background:accumulate"
         id="rect6579"
         width="6.1851983"
         height="0.41125315"
         x="4.0291252"
         y="10.653522"
         rx="0"
         ry="0.20562658" />
    </g>
  </g>
</svg>
